<svg xmlns="http://www.w3.org/2000/svg" width="528.276" height="376.594" viewBox="0 0 528.276 376.594">
  <g id="Group_16" data-name="Group 16" transform="translate(-728.774 -330.406)">
    <g id="Group_15" data-name="Group 15">
      <g id="Group_1" data-name="Group 1">
        <line id="Line_1" data-name="Line 1" x2="25" y2="25" transform="translate(992.5 350.5)" fill="none" stroke="#fff" stroke-linecap="round" stroke-width="3"/>
        <line id="Line_2" data-name="Line 2" y1="26" x2="25" transform="translate(992.5 375.5)" fill="none" stroke="#fff" stroke-linecap="round" stroke-width="3"/>
      </g>
      <g id="Group_2" data-name="Group 2" transform="translate(967.5 350.5)">
        <line id="Line_1-2" data-name="Line 1" x1="25" y2="25" fill="none" stroke="#fff" stroke-linecap="round" stroke-width="3"/>
        <line id="Line_2-2" data-name="Line 2" x1="25" y1="26" transform="translate(0 25)" fill="none" stroke="#fff" stroke-linecap="round" stroke-width="3"/>
      </g>
      <line id="Line_3" data-name="Line 3" x2="3" transform="translate(972.5 375.5)" fill="none" stroke="#fff" stroke-linecap="round" stroke-width="2"/>
      <line id="Line_4" data-name="Line 4" x2="3" transform="translate(1009.5 375.5)" fill="none" stroke="#fff" stroke-linecap="round" stroke-width="2"/>
      <line id="Line_5" data-name="Line 5" x2="2" transform="translate(1004.5 375.5)" fill="none" stroke="#fff" stroke-linecap="round" stroke-width="2"/>
      <line id="Line_6" data-name="Line 6" x2="2" transform="translate(978.5 375.5)" fill="none" stroke="#fff" stroke-linecap="round" stroke-width="2"/>
      <circle id="Ellipse_1" data-name="Ellipse 1" cx="5.5" cy="5.5" r="5.5" transform="translate(987 370)" fill="#fff"/>
      <g id="Group_3" data-name="Group 3">
        <line id="Line_7" data-name="Line 7" x2="31" y2="43" transform="translate(992.5 332.5)" fill="none" stroke="#fff" stroke-linecap="round" stroke-width="3"/>
        <line id="Line_8" data-name="Line 8" y1="34" x2="24" transform="translate(999.5 375.5)" fill="none" stroke="#fff" stroke-linecap="round" stroke-width="3"/>
      </g>
      <g id="Group_4" data-name="Group 4" transform="translate(961.5 332.5)">
        <line id="Line_7-2" data-name="Line 7" x1="31" y2="43" fill="none" stroke="#fff" stroke-linecap="round" stroke-width="3"/>
        <line id="Line_8-2" data-name="Line 8" x1="24" y1="34" transform="translate(0 43)" fill="none" stroke="#fff" stroke-linecap="round" stroke-width="3"/>
      </g>
      <g id="Group_5" data-name="Group 5" transform="translate(986.42 425.5)">
        <path id="Path_1" data-name="Path 1" d="M0,0,49.609,81.555" transform="translate(12.351 5.394)" fill="none" stroke="#fff" stroke-linecap="round" stroke-width="3"/>
        <line id="Line_8-3" data-name="Line 8" y1="130" x2="52" transform="translate(10.08 87)" fill="none" stroke="#fff" stroke-linecap="round" stroke-width="3"/>
      </g>
      <g id="Group_6" data-name="Group 6" transform="translate(934.299 425.5)">
        <path id="Path_2" data-name="Path 2" d="M51.415,5.034,0,86.772" fill="none" stroke="#fff" stroke-linecap="round" stroke-width="3"/>
        <line id="Line_8-4" data-name="Line 8" x1="53" y1="129" transform="translate(0.201 87)" fill="none" stroke="#fff" stroke-linecap="round" stroke-width="3"/>
      </g>
      <g id="Ellipse_2" data-name="Ellipse 2" transform="translate(980 407)" fill="none" stroke="#fff" stroke-width="3">
        <ellipse cx="12.5" cy="13" rx="12.5" ry="13" stroke="none"/>
        <ellipse cx="12.5" cy="13" rx="11" ry="11.5" fill="none"/>
      </g>
      <circle id="Ellipse_3" data-name="Ellipse 3" cx="4.5" cy="4.5" r="4.5" transform="translate(988 416)" fill="#fff"/>
      <line id="Line_9" data-name="Line 9" y1="5" transform="translate(992.5 432.5)" fill="none" stroke="#fff" stroke-width="3"/>
      <line id="Line_10" data-name="Line 10" y1="13" transform="translate(992.5 441.5)" fill="none" stroke="#fff" stroke-width="3"/>
      <line id="Line_11" data-name="Line 11" y1="5" transform="translate(992.5 458.5)" fill="none" stroke="#fff" stroke-width="3"/>
      <line id="Line_12" data-name="Line 12" y1="23" transform="translate(992.5 469.5)" fill="none" stroke="#fff" stroke-width="3"/>
      <line id="Line_13" data-name="Line 13" y1="56" transform="translate(992.5 498.5)" fill="none" stroke="#fff" stroke-width="3"/>
      <line id="Line_14" data-name="Line 14" y1="25" transform="translate(992.5 559.5)" fill="none" stroke="#fff" stroke-width="3"/>
      <line id="Line_15" data-name="Line 15" y1="7" transform="translate(992.5 589.5)" fill="none" stroke="#fff" stroke-width="3"/>
      <line id="Line_16" data-name="Line 16" y1="14" transform="translate(992.5 601.5)" fill="none" stroke="#fff" stroke-width="3"/>
      <line id="Line_17" data-name="Line 17" y1="3" transform="translate(992.5 619.5)" fill="none" stroke="#fff" stroke-width="3"/>
      <line id="Line_18" data-name="Line 18" y1="3" transform="translate(992.5 628.5)" fill="none" stroke="#fff" stroke-width="3"/>
      <g id="Group_7" data-name="Group 7" transform="matrix(0.017, -1, 1, 0.017, 728.935, 465.684)">
        <path id="Path_2-2" data-name="Path 2" d="M45.849,1.365,0,86.772" fill="none" stroke="#fff" stroke-linecap="round" stroke-width="3"/>
        <line id="Line_8-5" data-name="Line 8" x1="46.368" y1="163.79" transform="translate(0.201 87)" fill="none" stroke="#fff" stroke-linecap="round" stroke-width="3"/>
      </g>
      <g id="Group_8" data-name="Group 8" transform="matrix(0.017, 1, -1, 0.017, 978.688, 369.164)">
        <path id="Path_2-3" data-name="Path 2" d="M45.849,85.407,0,0" transform="translate(0 163.019)" fill="none" stroke="#fff" stroke-linecap="round" stroke-width="3"/>
        <line id="Line_8-6" data-name="Line 8" x1="47.177" y2="164.776" transform="translate(0.201 -1.986)" fill="none" stroke="#fff" stroke-linecap="round" stroke-width="3"/>
      </g>
      <g id="Group_9" data-name="Group 9" transform="matrix(-0.242, -0.97, 0.97, -0.242, 775.12, 520.623)">
        <path id="Path_2-4" data-name="Path 2" d="M41,0,0,76.368" transform="translate(0 0)" fill="none" stroke="#fff" stroke-linecap="round" stroke-width="3"/>
        <line id="Line_8-7" data-name="Line 8" x1="41.461" y1="146.457" transform="translate(0.18 76.573)" fill="none" stroke="#fff" stroke-linecap="round" stroke-width="3"/>
      </g>
      <g id="Group_10" data-name="Group 10" transform="translate(969.017 379.264) rotate(74)">
        <path id="Path_2-5" data-name="Path 2" d="M41,76.368,0,0" transform="translate(0 147.543)" fill="none" stroke="#fff" stroke-linecap="round" stroke-width="3"/>
        <line id="Line_8-8" data-name="Line 8" x1="42.184" y2="147.339" transform="translate(0.18 0)" fill="none" stroke="#fff" stroke-linecap="round" stroke-width="3"/>
      </g>
      <g id="Group_11" data-name="Group 11" transform="matrix(-0.017, -1, 1, -0.017, 1006.137, 470.061)">
        <path id="Path_2-6" data-name="Path 2" d="M45.849,85.407,0,0" transform="translate(0 164.018)" fill="none" stroke="#fff" stroke-linecap="round" stroke-width="3"/>
        <line id="Line_8-9" data-name="Line 8" x1="46.368" y2="163.79" transform="translate(0.201 0)" fill="none" stroke="#fff" stroke-linecap="round" stroke-width="3"/>
      </g>
      <g id="Group_12" data-name="Group 12" transform="matrix(-0.017, 1, -1, -0.017, 1255.524, 373.5)">
        <path id="Path_2-7" data-name="Path 2" d="M45.849,0,0,85.407" transform="translate(0 0)" fill="none" stroke="#fff" stroke-linecap="round" stroke-width="3"/>
        <line id="Line_8-10" data-name="Line 8" x1="47.177" y1="164.776" transform="translate(0.201 85.635)" fill="none" stroke="#fff" stroke-linecap="round" stroke-width="3"/>
      </g>
      <g id="Group_13" data-name="Group 13" transform="translate(994.3 466.667) rotate(-76)">
        <path id="Path_2-8" data-name="Path 2" d="M41,76.368,0,0" transform="translate(0 146.661)" fill="none" stroke="#fff" stroke-linecap="round" stroke-width="3"/>
        <line id="Line_8-11" data-name="Line 8" x1="41.461" y2="146.457" transform="translate(0.18 0)" fill="none" stroke="#fff" stroke-linecap="round" stroke-width="3"/>
      </g>
      <g id="Group_14" data-name="Group 14" transform="translate(1232.044 440.982) rotate(106)">
        <path id="Path_2-9" data-name="Path 2" d="M41,0,0,76.368" transform="translate(0 0)" fill="none" stroke="#fff" stroke-linecap="round" stroke-width="3"/>
        <line id="Line_8-12" data-name="Line 8" x1="42.184" y1="147.338" transform="translate(0.18 76.573)" fill="none" stroke="#fff" stroke-linecap="round" stroke-width="3"/>
      </g>
      <g id="Ellipse_4" data-name="Ellipse 4" transform="translate(980 640)" fill="none" stroke="#fff" stroke-width="3">
        <circle cx="12" cy="12" r="12" stroke="none"/>
        <circle cx="12" cy="12" r="10.5" fill="none"/>
      </g>
      <line id="Line_19" data-name="Line 19" x1="13" y2="19" transform="translate(974.5 661.5)" fill="none" stroke="#fff" stroke-linecap="round" stroke-width="3"/>
      <path id="Path_3" data-name="Path 3" d="M18,25,.079.135" transform="translate(974.5 680.5)" fill="none" stroke="#fff" stroke-linecap="round" stroke-width="3"/>
      <line id="Line_20" data-name="Line 20" x2="13" y2="19" transform="translate(997.5 661.5)" fill="none" stroke="#fff" stroke-linecap="round" stroke-width="3"/>
      <path id="Path_4" data-name="Path 4" d="M.079,25,18,.135" transform="translate(992.421 680.5)" fill="none" stroke="#fff" stroke-linecap="round" stroke-width="3"/>
      <g id="Ellipse_5" data-name="Ellipse 5" transform="translate(754 405)" fill="none" stroke="#fff" stroke-width="3">
        <circle cx="14.5" cy="14.5" r="14.5" stroke="none"/>
        <circle cx="14.5" cy="14.5" r="13" fill="none"/>
      </g>
      <g id="Ellipse_6" data-name="Ellipse 6" transform="translate(1201 405)" fill="none" stroke="#fff" stroke-width="3">
        <circle cx="14.5" cy="14.5" r="14.5" stroke="none"/>
        <circle cx="14.5" cy="14.5" r="13" fill="none"/>
      </g>
      <g id="Ellipse_7" data-name="Ellipse 7" transform="translate(1130 485)" fill="none" stroke="#fff" stroke-width="2">
        <circle cx="6.5" cy="6.5" r="6.5" stroke="none"/>
        <circle cx="6.5" cy="6.5" r="5.5" fill="none"/>
      </g>
      <g id="Ellipse_8" data-name="Ellipse 8" transform="translate(842 485)" fill="none" stroke="#fff" stroke-width="2">
        <circle cx="6.5" cy="6.5" r="6.5" stroke="none"/>
        <circle cx="6.5" cy="6.5" r="5.5" fill="none"/>
      </g>
      <line id="Line_21" data-name="Line 21" x1="44" y2="42" transform="translate(899.5 563.5)" fill="none" stroke="#fff" stroke-linecap="round" stroke-width="3"/>
      <line id="Line_22" data-name="Line 22" x2="44" y2="42" transform="translate(1039.5 563.5)" fill="none" stroke="#fff" stroke-linecap="round" stroke-width="3"/>
      <line id="Line_23" data-name="Line 23" x1="27.022" y2="25.794" transform="translate(923.628 583.5)" fill="none" stroke="#fff" stroke-linecap="round" stroke-width="3"/>
      <line id="Line_24" data-name="Line 24" x2="27.022" y2="25.794" transform="translate(1034.049 583.5)" fill="none" stroke="#fff" stroke-linecap="round" stroke-width="3"/>
      <g id="Ellipse_9" data-name="Ellipse 9" transform="translate(899 616)" fill="none" stroke="#fff" stroke-width="2">
        <circle cx="6.5" cy="6.5" r="6.5" stroke="none"/>
        <circle cx="6.5" cy="6.5" r="5.5" fill="none"/>
      </g>
      <g id="Ellipse_10" data-name="Ellipse 10" transform="translate(1071 616)" fill="none" stroke="#fff" stroke-width="2">
        <circle cx="6.5" cy="6.5" r="6.5" stroke="none"/>
        <circle cx="6.5" cy="6.5" r="5.5" fill="none"/>
      </g>
    </g>
  </g>
</svg>
